<svg width="512" height="512" viewBox="0 0 512 512" fill="none" xmlns="http://www.w3.org/2000/svg">
<g clip-path="url(#clip0_98_1079)">
<g clip-path="url(#clip1_98_1079)">
<path d="M512.75 258H-0.25V512H259.069" fill="url(#paint0_linear_98_1079)"/>
<path d="M253.431 308.8V428.462L209.46 308.8H165.488L128.282 408.142C123.772 383.307 97.8399 374.276 77.5454 367.502C64.0157 362.987 49.3586 357.342 49.3586 349.44C49.3586 343.796 57.2509 338.151 71.9081 339.28C82.0553 340.409 91.0751 340.409 109.115 349.44L127.154 318.96C110.242 309.929 87.6927 305.413 69.6531 305.413C48.2311 305.413 30.1916 312.187 18.9168 323.476C11.0245 331.378 7.64212 341.538 6.51465 352.827C6.51465 368.631 12.152 379.92 24.5542 388.951C34.7015 395.724 47.1037 400.24 58.3784 403.627C73.0355 408.142 84.3103 412.658 84.3103 420.56C83.1828 430.72 71.9081 432.978 64.0157 432.978C50.4861 434.107 39.2114 431.849 22.2993 421.689L6.51465 452.169C23.4267 462.329 41.4663 466.844 62.8883 466.844C77.5454 466.844 100.095 462.329 112.497 451.04L110.242 461.2H153.086L160.978 442.009C177.89 446.524 197.058 447.653 213.97 442.009L219.607 461.2H296.275V416.044H312.06C351.521 416.044 375.198 396.853 375.198 362.987C375.198 324.604 352.649 308.8 304.167 308.8H253.431ZM171.126 408.142L186.91 357.342H188.038L203.822 408.142C192.548 411.529 181.273 411.529 171.126 408.142ZM296.275 382.178V341.538H307.55C322.207 341.538 333.482 346.053 333.482 360.729C333.482 376.533 322.207 382.178 307.55 382.178H296.275Z" fill="white"/>
</g>
<rect x="491.692" y="21.0583" width="169.883" height="93.8833" transform="rotate(90 491.692 21.0583)" fill="#89D1FF" stroke="#0157AC" stroke-width="42.1167"/>
<rect x="303.692" y="190.942" width="93.8833" height="169.883" transform="rotate(-180 303.692 190.942)" fill="#89D1FF" stroke="#0070F2" stroke-width="42.1167"/>
<rect x="115.692" y="21.0583" width="169.883" height="93.8833" transform="rotate(90 115.692 21.0583)" fill="white" stroke="#89D1FF" stroke-width="42.1167"/>
<line x1="73" y1="109" x2="439" y2="109" stroke="black" stroke-width="16" stroke-linecap="square" stroke-dasharray="1 37"/>
</g>
<defs>
<linearGradient id="paint0_linear_98_1079" x1="-0.25" y1="258" x2="-0.25" y2="512" gradientUnits="userSpaceOnUse">
<stop stop-color="#00AAEE"/>
<stop offset="1" stop-color="#0055AA"/>
</linearGradient>
<clipPath id="clip0_98_1079">
<rect width="512" height="512" fill="white"/>
</clipPath>
<clipPath id="clip1_98_1079">
<rect width="513" height="254" fill="white" transform="translate(-0.25 258)"/>
</clipPath>
</defs>
</svg>
